<svg width="136" height="67" viewBox="0 0 136 67" fill="none" xmlns="http://www.w3.org/2000/svg">
<g clip-path="url(#clip0_8745_6518)">
<path d="M50.4906 24C50.0532 24 49.6532 23.8933 49.2906 23.68C48.9386 23.4667 48.6559 23.184 48.4426 22.832C48.2292 22.4693 48.1226 22.0693 48.1226 21.632V14.848C48.1226 14.4107 48.2292 14.016 48.4426 13.664C48.6559 13.3013 48.9386 13.0133 49.2906 12.8C49.6532 12.5867 50.0532 12.48 50.4906 12.48H59.6106V14.976H51.1306C50.9599 14.976 50.8266 15.0187 50.7306 15.104C50.6452 15.1893 50.6026 15.3227 50.6026 15.504V20.976C50.6026 21.1467 50.6452 21.28 50.7306 21.376C50.8266 21.4613 50.9599 21.504 51.1306 21.504H59.6106V24H50.4906ZM67.1148 24C66.6881 24 66.2935 23.8933 65.9308 23.68C65.5681 23.4667 65.2801 23.1787 65.0668 22.816C64.8535 22.4533 64.7468 22.0587 64.7468 21.632V14.848C64.7468 14.4107 64.8535 14.016 65.0668 13.664C65.2801 13.3013 65.5681 13.0133 65.9308 12.8C66.2935 12.5867 66.6881 12.48 67.1148 12.48H73.8988C74.3255 12.48 74.7148 12.5867 75.0668 12.8C75.4295 13.0133 75.7175 13.3013 75.9308 13.664C76.1548 14.016 76.2668 14.4107 76.2668 14.848V21.632C76.2668 22.0587 76.1548 22.4533 75.9308 22.816C75.7175 23.1787 75.4295 23.4667 75.0668 23.68C74.7148 23.8933 74.3255 24 73.8988 24H67.1148ZM67.2268 21.504H73.7548V14.976H67.2268V21.504ZM83.8968 24C83.4595 24 83.0595 23.8933 82.6968 23.68C82.3448 23.4667 82.0621 23.184 81.8488 22.832C81.6355 22.4693 81.5288 22.0693 81.5288 21.632V14.848C81.5288 14.4107 81.6355 14.016 81.8488 13.664C82.0621 13.3013 82.3448 13.0133 82.6968 12.8C83.0595 12.5867 83.4595 12.48 83.8968 12.48H93.0168V14.976H84.5368C84.3661 14.976 84.2328 15.0187 84.1368 15.104C84.0515 15.1893 84.0088 15.3227 84.0088 15.504V20.976C84.0088 21.1467 84.0515 21.28 84.1368 21.376C84.2328 21.4613 84.3661 21.504 84.5368 21.504H93.0168V24H83.8968ZM98.2011 24V12.48H100.681V16.992H107.481V12.48H109.961V24H107.481V19.488H100.681V24H98.2011ZM115.326 24V14.848C115.326 14.4107 115.433 14.016 115.646 13.664C115.86 13.3013 116.148 13.0133 116.51 12.8C116.873 12.5867 117.268 12.48 117.694 12.48H124.462C124.9 12.48 125.294 12.5867 125.646 12.8C126.009 13.0133 126.297 13.3013 126.51 13.664C126.734 14.016 126.846 14.4107 126.846 14.848V24H124.334V20.288H117.806V24H115.326ZM117.806 17.792H124.334V14.976H117.806V17.792Z" fill="#1565C0"/>
<path d="M61.5016 62.2812C59.5172 62.2812 58.0484 61.7188 57.0953 60.5938C56.2672 59.625 55.8531 58.3828 55.8531 56.8672C55.8531 56.1484 55.9391 55.3125 56.1109 54.3594C56.2984 53.4062 56.5719 52.1797 56.9313 50.6797C57.2906 49.1484 57.5563 47.9297 57.7281 47.0234C57.9156 46.1016 58.0094 45.3047 58.0094 44.6328C58.0094 42.9922 57.4313 42.1719 56.275 42.1719C55.4625 42.1719 54.7125 42.6016 54.025 43.4609C53.4469 44.1953 52.9469 45.2422 52.525 46.6016L49.2672 62H42.3531L49.3141 29.3516L56.4156 28.3906L53.8375 40.4844C54.775 39.4375 55.7828 38.7031 56.8609 38.2812C57.6578 37.9688 58.5172 37.8125 59.4391 37.8125C61.0641 37.8125 62.3453 38.2344 63.2828 39.0781C64.2828 40 64.7828 41.3828 64.7828 43.2266C64.7828 44.3359 64.5797 45.7812 64.1734 47.5625C64.0641 48.0781 63.8844 48.8516 63.6344 49.8828C63.1813 51.6172 62.8531 53 62.65 54.0312C62.525 54.6875 62.4625 55.2188 62.4625 55.625C62.4625 56.2656 62.6031 56.7656 62.8844 57.125C63.1813 57.4688 63.6813 57.6406 64.3844 57.6406C65.3375 57.6406 66.1422 57.25 66.7984 56.4688C67.2984 55.875 67.8375 54.8516 68.4156 53.3984H70.4313C69.2438 56.9141 67.7438 59.375 65.9313 60.7812C64.65 61.7812 63.1734 62.2812 61.5016 62.2812ZM79.5813 35.3984C79.0656 35.3984 78.5734 35.3047 78.1047 35.1172C77.6359 34.9141 77.2297 34.6406 76.8859 34.2969C76.5422 33.9688 76.2688 33.5703 76.0656 33.1016C75.8781 32.6328 75.7844 32.1406 75.7844 31.625C75.7844 31.1094 75.8781 30.6172 76.0656 30.1484C76.2688 29.6797 76.5422 29.2656 76.8859 28.9062C77.2297 28.5469 77.6359 28.2734 78.1047 28.0859C78.5734 27.8828 79.0656 27.7812 79.5813 27.7812C80.0969 27.7812 80.5891 27.8828 81.0578 28.0859C81.5266 28.2734 81.9406 28.5469 82.3 28.9062C82.6594 29.2656 82.9328 29.6797 83.1203 30.1484C83.3234 30.6172 83.425 31.1094 83.425 31.625C83.425 32.1406 83.3234 32.6328 83.1203 33.1016C82.9328 33.5703 82.6594 33.9688 82.3 34.2969C81.9406 34.6406 81.5266 34.9141 81.0578 35.1172C80.5891 35.3047 80.0969 35.3984 79.5813 35.3984ZM76.3234 62.2812C74.7922 62.2812 73.5813 61.8281 72.6906 60.9219C71.6906 59.9219 71.1906 58.4609 71.1906 56.5391C71.1906 55.6328 71.3156 54.5859 71.5656 53.3984L74.8234 38H81.7375L78.2922 54.3125C78.1672 54.7188 78.1047 55.2344 78.1047 55.8594C78.1047 56.5156 78.2531 56.9766 78.55 57.2422C78.8625 57.5078 79.3625 57.6406 80.05 57.6406C80.5188 57.6406 80.9719 57.5391 81.4094 57.3359C81.8625 57.1172 82.2766 56.8203 82.6516 56.4453C83.4172 55.6797 83.9953 54.6641 84.3859 53.3984H86.4016C85.5422 55.8203 84.4641 57.75 83.1672 59.1875C82.0734 60.3594 80.8391 61.2031 79.4641 61.7188C78.4641 62.0938 77.4172 62.2812 76.3234 62.2812ZM93.325 62.2812C91.4969 62.2812 90.0203 61.7109 88.8953 60.5703C87.5828 59.2266 86.9266 57.2266 86.9266 54.5703C86.9266 53.4453 87.0438 52.2578 87.2781 51.0078C87.4969 49.7578 87.825 48.5234 88.2625 47.3047C89.2625 44.5547 90.6297 42.3359 92.3641 40.6484C94.3641 38.7266 96.6688 37.7656 99.2781 37.7656C100.575 37.7656 101.544 37.9922 102.184 38.4453C102.841 38.8828 103.169 39.4688 103.169 40.2031V40.5547L103.684 38H110.598L107.153 54.3125C107.013 54.7812 106.942 55.2969 106.942 55.8594C106.942 57.2344 107.598 57.9219 108.911 57.9219C109.786 57.9219 110.583 57.4766 111.302 56.5859C111.911 55.8359 112.411 54.7734 112.802 53.3984H114.817C113.958 55.8359 112.919 57.7656 111.7 59.1875C110.669 60.3594 109.505 61.2031 108.208 61.7188C107.255 62.0938 106.247 62.2812 105.184 62.2812C103.825 62.2812 102.739 61.9141 101.927 61.1797C101.13 60.4297 100.645 59.3281 100.473 57.875C99.5672 59.1562 98.6141 60.1562 97.6141 60.875C96.3328 61.8125 94.9031 62.2812 93.325 62.2812ZM96.4422 57.6406C96.8016 57.6406 97.1766 57.5469 97.5672 57.3594C97.9734 57.1719 98.3641 56.9062 98.7391 56.5625C99.5828 55.75 100.145 54.6953 100.427 53.3984L102.723 42.5703C102.723 42.4141 102.684 42.2344 102.606 42.0312C102.544 41.8125 102.45 41.6094 102.325 41.4219C101.95 40.9688 101.427 40.7422 100.755 40.7422C100.114 40.7422 99.4891 40.9531 98.8797 41.375C98.2859 41.7969 97.7234 42.3828 97.1922 43.1328C96.2547 44.4922 95.4813 46.2656 94.8719 48.4531C94.5906 49.4219 94.3797 50.3828 94.2391 51.3359C94.0984 52.2734 94.0281 53.125 94.0281 53.8906C94.0281 55.4844 94.325 56.5625 94.9188 57.125C95.1219 57.3438 95.3484 57.4844 95.5984 57.5469C95.8484 57.6094 96.1297 57.6406 96.4422 57.6406ZM123.991 35.3984C123.475 35.3984 122.983 35.3047 122.514 35.1172C122.045 34.9141 121.639 34.6406 121.295 34.2969C120.952 33.9688 120.678 33.5703 120.475 33.1016C120.287 32.6328 120.194 32.1406 120.194 31.625C120.194 31.1094 120.287 30.6172 120.475 30.1484C120.678 29.6797 120.952 29.2656 121.295 28.9062C121.639 28.5469 122.045 28.2734 122.514 28.0859C122.983 27.8828 123.475 27.7812 123.991 27.7812C124.506 27.7812 124.998 27.8828 125.467 28.0859C125.936 28.2734 126.35 28.5469 126.709 28.9062C127.069 29.2656 127.342 29.6797 127.53 30.1484C127.733 30.6172 127.834 31.1094 127.834 31.625C127.834 32.1406 127.733 32.6328 127.53 33.1016C127.342 33.5703 127.069 33.9688 126.709 34.2969C126.35 34.6406 125.936 34.9141 125.467 35.1172C124.998 35.3047 124.506 35.3984 123.991 35.3984ZM120.733 62.2812C119.202 62.2812 117.991 61.8281 117.1 60.9219C116.1 59.9219 115.6 58.4609 115.6 56.5391C115.6 55.6328 115.725 54.5859 115.975 53.3984L119.233 38H126.147L122.702 54.3125C122.577 54.7188 122.514 55.2344 122.514 55.8594C122.514 56.5156 122.662 56.9766 122.959 57.2422C123.272 57.5078 123.772 57.6406 124.459 57.6406C124.928 57.6406 125.381 57.5391 125.819 57.3359C126.272 57.1172 126.686 56.8203 127.061 56.4453C127.827 55.6797 128.405 54.6641 128.795 53.3984H130.811C129.952 55.8203 128.873 57.75 127.577 59.1875C126.483 60.3594 125.248 61.2031 123.873 61.7188C122.873 62.0938 121.827 62.2812 120.733 62.2812Z" fill="#1565C0"/>
<path d="M30.388 11.083C29.7435 11.2033 28.7896 11.7017 28.2483 12.1915C26.2977 13.9703 26.3234 17.0638 28.2998 18.8426C28.5404 19.0574 29.0131 19.3668 29.3568 19.5386C32.2784 20.9823 35.7586 18.7824 35.7586 15.4913C35.7586 12.647 33.2065 10.5503 30.388 11.083Z" fill="#1565C0"/>
<path d="M20.9356 11.2291C19.2771 11.6158 18.0311 12.2775 17.0257 13.2914C15.8743 14.4515 15.393 15.6459 15.393 17.3388C15.393 19.4355 16.0117 21.2916 17.4382 23.4828C17.9452 24.2562 18.7272 25.1757 18.6068 24.8577C18.3491 24.1703 18.1256 23.0188 18.0827 22.1939C17.9881 20.2432 18.435 18.9371 19.5693 17.8544C19.9216 17.5278 20.2395 17.2529 20.2911 17.2529C20.377 17.2529 20.3856 17.2614 20.5919 18.4129C20.927 20.2432 21.3137 21.4377 22.1214 23.0532C22.7487 24.325 23.2213 25.0554 24.0377 26.0779C26.0828 28.5957 28.9529 30.5206 32.1066 31.4744C34.083 32.0673 35.5696 32.3251 37.6921 32.4196L38.8092 32.4712L37.9499 32.0931C35.3548 30.9502 32.4417 29.0426 30.5169 27.2294C28.9014 25.717 27.8444 24.325 26.8992 22.4774C25.7907 20.2948 25.3868 18.5332 25.2751 15.3624C25.2235 13.9187 25.1634 13.2141 25.0688 12.8962C24.8798 12.2946 24.2267 11.5814 23.6252 11.3236C22.9979 11.0487 21.8808 11.0143 20.9356 11.2291Z" fill="#1565C0"/>
<path d="M13.9236 15.0788C11.7668 17.3388 10.5809 19.8995 10.4348 22.5806C10.3231 24.7804 11.1481 27.3755 12.5917 29.3261C14.8689 32.411 17.7819 34.6109 23.8572 37.8333C26.4867 39.2254 28.6006 40.4456 29.563 41.133C31.2645 42.3532 32.6479 43.6508 33.4557 44.7937C34.6158 46.4178 35.1829 48.6863 34.9767 50.826C34.9079 51.6166 34.5642 53.1977 34.4009 53.4813C33.0529 55.8403 29.7078 56.3057 27.1312 57.1677C23.4018 58.4137 18.3319 58.1903 12.987 56.549C12.4456 56.3857 11.8871 56.2139 11.7496 56.1709C11.509 56.1022 11.509 56.1022 11.6636 56.2826C11.9472 56.6006 13.9494 58.1129 14.7056 58.5856C17.1031 60.0894 19.9302 61.1205 22.8261 61.5588C24.1322 61.7564 26.7617 61.7564 28.2397 61.5588C29.4857 61.3869 31.359 60.9401 32.4847 60.5448C35.1056 59.6167 37.6749 57.6833 39.4537 55.303C40.5106 53.8766 41.5246 51.4877 41.8082 49.7347C42.5901 44.8624 40.9918 40.9612 36.8242 37.6185C34.6587 35.8826 32.6651 34.6796 28.0249 32.3079C25.6618 31.1049 23.7799 30.1081 22.6972 29.4722C19.8786 27.8309 17.3866 25.6397 16.0203 23.6031C15.2727 22.4946 14.9376 21.833 14.6283 20.8791C14.233 19.6589 14.147 19.0488 14.1556 17.5536C14.1642 16.3506 14.19 16.067 14.3876 15.328C14.5165 14.8554 14.6025 14.4601 14.5853 14.4429C14.5767 14.4257 14.2759 14.7179 13.9236 15.0788Z" fill="#1565C0"/>
<path d="M17.4984 35.9933C17.373 37.2017 17.4326 38.0224 17.7623 39.4024C18.1935 41.244 18.6222 42.0694 19.9227 43.5261C20.6901 44.3799 21.6159 45.1055 23.5431 46.3663C26.1853 48.0882 26.9796 48.8139 27.6092 50.1161C28.0768 51.0915 28.1854 52.1127 27.9334 53.0836C27.878 53.2875 27.8613 53.4662 27.8916 53.4864C27.9928 53.5537 29.7364 52.7653 30.3512 52.3789C31.4629 51.6736 32.3502 50.6365 32.6225 49.7229C32.7284 49.3773 32.7198 49.2037 32.5744 48.523C32.4306 47.8507 32.3394 47.6148 31.9749 47.0219C30.9371 45.3021 30.1175 44.5815 27.4267 43.0096C24.3971 41.2408 18.9526 40.2441 17.5822 35.4068C17.5654 35.4102 17.5302 35.6714 17.4984 35.9933Z" fill="#1565C0"/>
<path d="M8.65607 47.2427C7.82254 47.5435 7.04916 48.1708 6.55935 48.9699C6.02658 49.8378 5.97503 51.3502 6.43905 52.3556C7.15228 53.868 8.87949 54.8132 10.4348 54.5468C12.0675 54.2632 13.3221 53.0087 13.6057 51.3846C13.8807 49.7777 12.9784 48.1106 11.4402 47.3802C10.9504 47.1482 10.77 47.1138 10.0224 47.0966C9.32633 47.0708 9.06853 47.0966 8.65607 47.2427Z" fill="#1565C0"/>
</g>
<defs>
<clipPath id="clip0_8745_6518">
<rect width="136" height="67" fill="white"/>
</clipPath>
</defs>
</svg>
