<svg xmlns="http://www.w3.org/2000/svg" version="1.1" xmlns:xlink="http://www.w3.org/1999/xlink" width="45" height="60"><svg xmlns="http://www.w3.org/2000/svg" version="1.1" xmlns:xlink="http://www.w3.org/1999/xlink" width="45" height="60"><svg width="45" height="60" viewBox="0 0 45 60" fill="none" xmlns="http://www.w3.org/2000/svg">
<path d="M28.388 6.08303C27.7435 6.20334 26.7897 6.70174 26.2483 7.19154C24.2977 8.97031 24.3234 12.0638 26.2998 13.8426C26.5405 14.0574 27.0131 14.3668 27.3568 14.5386C30.2784 15.9823 33.7586 13.7824 33.7586 10.4913C33.7586 7.64697 31.2065 5.55026 28.388 6.08303Z" fill="#1565C0"></path>
<path d="M18.9356 6.22911C17.2771 6.61579 16.0311 7.27746 15.0257 8.29145C13.8742 9.45151 13.393 10.6459 13.393 12.3388C13.393 14.4355 14.0117 16.2916 15.4382 18.4828C15.9452 19.2562 16.7272 20.1757 16.6068 19.8577C16.3491 19.1703 16.1256 18.0188 16.0827 17.1939C15.9881 15.2432 16.435 13.9371 17.5693 12.8544C17.9216 12.5278 18.2395 12.2529 18.2911 12.2529C18.377 12.2529 18.3856 12.2614 18.5918 13.4129C18.927 15.2432 19.3137 16.4377 20.1214 18.0532C20.7487 19.325 21.2213 20.0554 22.0377 21.0779C24.0828 23.5957 26.9529 25.5206 30.1066 26.4744C32.083 27.0673 33.5696 27.3251 35.6921 27.4196L36.8092 27.4712L35.9499 27.0931C33.3548 25.9502 30.4417 24.0426 28.5169 22.2294C26.9014 20.717 25.8444 19.325 24.8992 17.4774C23.7907 15.2948 23.3868 13.5332 23.2751 10.3624C23.2235 8.91874 23.1634 8.21411 23.0688 7.89616C22.8798 7.29465 22.2267 6.58142 21.6252 6.32363C20.9979 6.04865 19.8808 6.01428 18.9356 6.22911Z" fill="#1565C0"></path>
<path d="M11.9236 10.0788C9.76676 12.3388 8.58092 14.8995 8.43484 17.5806C8.32313 19.7804 9.14806 22.3755 10.5917 24.3261C12.8689 27.411 15.7819 29.6109 21.8572 32.8333C24.4867 34.2254 26.6006 35.4456 27.563 36.133C29.2645 37.3532 30.6479 38.6508 31.4557 39.7937C32.6158 41.4178 33.1829 43.6863 32.9767 45.826C32.9079 46.6166 32.5642 48.1977 32.4009 48.4813C31.0529 50.8403 27.7078 51.3057 25.1312 52.1677C21.4018 53.4137 16.3319 53.1903 10.987 51.549C10.4456 51.3857 9.88707 51.2139 9.74958 51.1709C9.50897 51.1022 9.50897 51.1022 9.66365 51.2826C9.94722 51.6006 11.9494 53.1129 12.7056 53.5856C15.1031 55.0894 17.9302 56.1205 20.8261 56.5588C22.1322 56.7564 24.7617 56.7564 26.2397 56.5588C27.4857 56.3869 29.359 55.9401 30.4847 55.5448C33.1056 54.6167 35.6749 52.6833 37.4537 50.303C38.5106 48.8766 39.5246 46.4877 39.8082 44.7347C40.5901 39.8624 38.9918 35.9612 34.8242 32.6185C32.6587 30.8826 30.6651 29.6796 26.0249 27.3079C23.6618 26.1049 21.7799 25.1081 20.6972 24.4722C17.8786 22.8309 15.3866 20.6397 14.0203 18.6031C13.2727 17.4946 12.9376 16.833 12.6283 15.8791C12.233 14.6589 12.147 14.0488 12.1556 12.5536C12.1642 11.3506 12.19 11.067 12.3877 10.328C12.5165 9.85538 12.6025 9.4601 12.5853 9.44291C12.5767 9.42573 12.2759 9.7179 11.9236 10.0788Z" fill="#1565C0"></path>
<path d="M15.4984 30.9933C15.373 32.2017 15.4326 33.0224 15.7623 34.4024C16.1935 36.244 16.6222 37.0694 17.9227 38.5261C18.6901 39.3799 19.6159 40.1055 21.5431 41.3663C24.1853 43.0882 24.9796 43.8139 25.6092 45.1161C26.0768 46.0915 26.1854 47.1127 25.9334 48.0836C25.878 48.2875 25.8613 48.4662 25.8916 48.4864C25.9928 48.5537 27.7364 47.7653 28.3512 47.3789C29.4629 46.6736 30.3502 45.6365 30.6225 44.7229C30.7284 44.3773 30.7198 44.2037 30.5744 43.523C30.4306 42.8507 30.3394 42.6148 29.9749 42.0219C28.9371 40.3021 28.1175 39.5815 25.4267 38.0096C22.3971 36.2408 16.9526 35.2441 15.5822 30.4068C15.5654 30.4102 15.5302 30.6714 15.4984 30.9933Z" fill="#1565C0"></path>
<path d="M6.65607 42.2427C5.82254 42.5435 5.04917 43.1708 4.55936 43.9699C4.02659 44.8378 3.97503 46.3502 4.43906 47.3556C5.15228 48.868 6.87949 49.8132 8.43484 49.5468C10.0675 49.2632 11.3221 48.0087 11.6057 46.3846C11.8807 44.7777 10.9784 43.1106 9.44023 42.3802C8.95042 42.1482 8.76997 42.1138 8.02237 42.0966C7.32633 42.0708 7.06854 42.0966 6.65607 42.2427Z" fill="#1565C0"></path>
</svg></svg><style>@media (prefers-color-scheme: light) { :root { filter: none; } }
@media (prefers-color-scheme: dark) { :root { filter: none; } }
</style></svg>